<svg xmlns="http://www.w3.org/2000/svg" width="183.344" height="59.792" viewBox="0 0 183.344 59.792"><defs><style>.a,.b{fill:#fff;}.a{font-size:46px;font-family:Roboto-Bold, Roboto;font-weight:700;}</style></defs><g transform="translate(-197.804 -270.765)"><path d="M374.043,270.765H197.8v1.447h5.5v56.9h-5.5v1.448H381.148v-1.448h-7.1Z"/><text class="a" transform="translate(243.605 316.176)"><tspan x="-28.84" y="0">NF</tspan></text><path class="b" d="M301.736,295.77c8,0,11.417,4.026,11.112,11.622H298.474v1.988c0,6.015,1.07,10.093,6.015,10.093,3.772,0,6.32-2.395,7.442-6.32l.918.152c-1.173,4.384-3.824,7.748-11.061,7.748-9.074,0-13.151-5.2-13.151-12.591C288.636,299.644,294.651,295.77,301.736,295.77Zm2.039,10.6v-2.5c0-5.352-.408-7.136-2.5-7.136-1.783,0-2.752,1.733-2.752,7.136v2.5Z" transform="translate(-13.444 -3.701)"/><path class="b" d="M321.112,295.736h-2.8v-.918h2.8v-6.575l9.481-2.346v8.92h7.442v-6.575l9.482-2.346v8.92h6.626v.918h-6.626v17.179c0,3.007.458,4.638,2.242,4.638,2.447,0,3.976-2.243,4.435-5.709l.866.1c-.458,3.975-2.141,7.646-8.36,7.646-4.231,0-7.391-1.02-8.36-5-1.019,2.8-3.313,5-8.309,5-5.1,0-8.92-1.478-8.92-7.8Zm16.923,0h-7.442v17.179c0,3.007.51,4.638,2.956,4.638,2.243,0,4.027-2.243,4.486-5.76Z" transform="translate(-17.836 -2.24)"/><path class="b" d="M375.44,295.77c8,0,11.417,4.026,11.112,11.622H372.178v1.988c0,6.015,1.07,10.093,6.014,10.093,3.773,0,6.321-2.395,7.442-6.32l.918.152c-1.172,4.384-3.823,7.748-11.061,7.748-9.073,0-13.151-5.2-13.151-12.591C362.339,299.644,368.354,295.77,375.44,295.77Zm2.039,10.6v-2.5c0-5.352-.408-7.136-2.5-7.136-1.784,0-2.753,1.733-2.753,7.136v2.5Z" transform="translate(-24.354 -3.701)"/></g></svg>