<?xml version="1.0" encoding="iso-8859-1"?>
<!-- Generator: Adobe Illustrator 19.0.0, SVG Export Plug-In . SVG Version: 6.00 Build 0)  -->
<svg version="1.1" id="Layer_1" xmlns="http://www.w3.org/2000/svg" xmlns:xlink="http://www.w3.org/1999/xlink" x="0px" y="0px"
	 viewBox="0 0 445 445" style="enable-background:new 0 0 445 445;" xml:space="preserve">
	<path d="M239.702,349.439C220.549,371.77,192.44,385,162.183,385C105.839,385,60,339.161,60,282.817
		s45.839-102.183,102.183-102.183c33.22,0,64.134,16.082,83.395,43.193c11.173,6.75,24.084,10.538,37.239,10.538
		c11.353,0,22.097-2.643,31.664-7.333c-9.905-27.046-26.737-50.878-49.138-69.365c-28.937-23.881-65.573-37.033-103.16-37.033
		C72.755,120.635,0,193.39,0,282.817S72.755,445,162.183,445c63.534,0,120.023-36.75,146.468-92.377
		c-8.452,1.141-17.073,1.742-25.833,1.742C268.231,354.365,253.767,352.682,239.702,349.439z"/>
	<path d="M282.817,0c-63.534,0-120.024,36.75-146.468,92.377c8.452-1.141,17.073-1.742,25.833-1.742
		c14.578,0,29.032,1.681,43.089,4.92C224.393,73.189,252.393,60,282.817,60C339.161,60,385,105.839,385,162.183
		s-45.839,102.183-102.183,102.183c-33.219,0-64.135-16.083-83.396-43.193c-11.173-6.75-24.083-10.537-37.238-10.537
		c-11.354,0-22.099,2.643-31.666,7.334c9.9,26.823,27.065,51.146,49.14,69.364c28.938,23.881,65.574,37.033,103.161,37.033
		C372.245,324.365,445,251.61,445,162.183S372.245,0,282.817,0z"/>
</svg>
