<svg xmlns="http://www.w3.org/2000/svg" width="40.594" height="40.594" viewBox="0 0 40.594 40.594"><defs><style>.c{fill:#201f20;}</style></defs><g transform="translate(2 1)"><g transform="translate(-2 -1)"><path class="c" d="M20.3,0a20.3,20.3,0,1,0,20.3,20.3A20.3,20.3,0,0,0,20.3,0Zm5.145,32.843c.1-.073-.488.325-.59.408-.343.174-.644.35-1.071.543.071-.033.1-.047-.039.019l.039-.019-.166.075a12.639,12.639,0,0,1-2.165.59,12.019,12.019,0,0,1-2.432-.014,9.237,9.237,0,0,1-3.3-1.223,10.037,10.037,0,0,1-4.541-10.8c.437-.185,1.556-.672,2.006-.868-.368-.216-1.237-.735-1.612-.959v-.014h-.014L20.3,6.078l8.744,14.507L27.4,21.55l2.016.876v.008l.013-.008A9.962,9.962,0,0,1,25.442,32.843Z"/></g></g></svg>